<svg id="logo-ver-3__footer--white" xmlns="http://www.w3.org/2000/svg" viewBox="0 0 500 614.71"><defs><style>.cls-1{fill:#fff;}</style></defs><title>logo-ver-2-text-under--white</title><path class="cls-1" d="M329.9,206.48a113.76,113.76,0,0,0,14.57-59.73c-2-60.55-51.64-109.4-112.21-110.39A114.11,114.11,0,0,0,116.68,139.45V433.72h38.1V236.14l0,0a114.19,114.19,0,0,0,33.69,20.64,95.26,95.26,0,0,1,105.78-11.64,114.42,114.42,0,0,0,28.41-27.46,132.38,132.38,0,0,0-36-16.41,75.87,75.87,0,0,1-100.38,11,76.86,76.86,0,0,1-10.72-9.26,75.56,75.56,0,0,1-20.83-45.8q-.3-3.33-.3-6.74a75.86,75.86,0,1,1,140.7,39.39A145.74,145.74,0,0,1,329.9,206.48Z"/><path class="cls-1" d="M322.68,217.7a133.47,133.47,0,0,0-136.35-5.37,134,134,0,0,0-31.53,23.83l0,0a132.85,132.85,0,0,0-38.1,93.3V462.81H250A133.33,133.33,0,0,0,322.68,217.7ZM250,424.72H154.78V329.49A95.23,95.23,0,1,1,250,424.72Z"/><path class="cls-1" d="M306,521.78a19.87,19.87,0,0,0-5.32-2.42,19.7,19.7,0,0,0-19.52,5.16h0a19.68,19.68,0,0,0-5.63,13.8V558h19.72A19.73,19.73,0,0,0,306,521.78Zm-10.75,30.63H281.14V538.32a14.09,14.09,0,1,1,14.09,14.09Z"/><path class="cls-1" d="M31.19,515.4H14.48v-7.92H57.25v7.92H40.55v42.48H31.19Z"/><path class="cls-1" d="M96.92,523.24q4.39,4.26,4.39,12.6v22h-9V537c0-3.36-.79-5.9-2.37-7.6a8.81,8.81,0,0,0-6.77-2.56,10.41,10.41,0,0,0-7.85,3q-2.88,3-2.88,8.61v19.44h-9V504.45h9v19.44A14.65,14.65,0,0,1,78,520.26,20.2,20.2,0,0,1,85.26,519Q92.52,519,96.92,523.24Z"/><path class="cls-1" d="M149.12,541.53H119a10.46,10.46,0,0,0,4.14,6.73,13.56,13.56,0,0,0,8.32,2.49,14,14,0,0,0,10.44-4.18l4.82,5.55a16.34,16.34,0,0,1-6.55,4.68,26,26,0,0,1-20.09-.94,18.17,18.17,0,0,1-7.45-7,21.15,21.15,0,0,1-.07-20.3,18.13,18.13,0,0,1,7.09-7A20.67,20.67,0,0,1,129.82,519a20.13,20.13,0,0,1,10.05,2.48,17.71,17.71,0,0,1,6.91,7,21.15,21.15,0,0,1,2.48,10.41C149.26,539.49,149.22,540.38,149.12,541.53Zm-26.6-12.78a10.72,10.72,0,0,0-3.64,6.81H140.7a10.63,10.63,0,0,0-3.53-6.77,10.73,10.73,0,0,0-7.35-2.59A10.85,10.85,0,0,0,122.52,528.75Z"/><path class="cls-1" d="M221,536.24a12.69,12.69,0,0,1,2.45,8,11.65,11.65,0,0,1-5,10.11q-5,3.57-14.69,3.57H178.64v-50.4h23.61q8.94,0,13.76,3.49a11.23,11.23,0,0,1,4.82,9.61,12.59,12.59,0,0,1-1.73,6.62,11.83,11.83,0,0,1-4.75,4.47A13.26,13.26,0,0,1,221,536.24Zm-33-21.42v13.9h13.25q4.89,0,7.52-1.77a5.81,5.81,0,0,0,2.63-5.15,5.89,5.89,0,0,0-2.63-5.22q-2.62-1.76-7.52-1.76Zm26,28.44q0-7.28-10.87-7.27H188v14.54h15.12Q214,550.53,214,543.26Z"/><path class="cls-1" d="M239.33,555.86a18.34,18.34,0,0,1-7.3-7,21,21,0,0,1,0-20.34,18.38,18.38,0,0,1,7.3-7,23.34,23.34,0,0,1,21.1,0,18.4,18.4,0,0,1,7.31,7,19.66,19.66,0,0,1,2.63,10.15,19.86,19.86,0,0,1-2.63,10.19,18.37,18.37,0,0,1-7.31,7,23.34,23.34,0,0,1-21.1,0Zm18.72-8.5a13.33,13.33,0,0,0,0-17.42,11.79,11.79,0,0,0-16.38,0,13.45,13.45,0,0,0,0,17.42,11.76,11.76,0,0,0,16.38,0Z"/><path class="cls-1" d="M285.77,555.86a18.34,18.34,0,0,1-7.3-7,21,21,0,0,1,0-20.34,18.38,18.38,0,0,1,7.3-7,23.34,23.34,0,0,1,21.1,0,18.47,18.47,0,0,1,7.31,7,19.66,19.66,0,0,1,2.63,10.15,19.86,19.86,0,0,1-2.63,10.19,18.43,18.43,0,0,1-7.31,7,23.34,23.34,0,0,1-21.1,0Zm18.72-8.5a13.33,13.33,0,0,0,0-17.42,11.79,11.79,0,0,0-16.38,0,13.45,13.45,0,0,0,0,17.42,11.76,11.76,0,0,0,16.38,0Z"/><path class="cls-1" d="M341.14,541.39l-6.69,6.33v10.16h-9V504.45h9v32.26l18.64-17.28h10.8l-16.05,16.13,17.57,22.32h-11Z"/><path class="cls-1" d="M371.31,511.54a5.29,5.29,0,0,1,0-7.7,5.78,5.78,0,0,1,4.1-1.55,6,6,0,0,1,4.11,1.48,4.76,4.76,0,0,1,1.65,3.71,5.42,5.42,0,0,1-1.62,4,5.61,5.61,0,0,1-4.14,1.62A5.73,5.73,0,0,1,371.31,511.54Zm-.43,7.89h9v38.45h-9Z"/><path class="cls-1" d="M425.16,523.24q4.39,4.26,4.4,12.6v22h-9V537c0-3.36-.8-5.9-2.38-7.6a8.8,8.8,0,0,0-6.77-2.56,10.41,10.41,0,0,0-7.85,3q-2.88,3-2.88,8.61v19.44h-9V519.43h8.57v5a14.13,14.13,0,0,1,5.62-4A20.23,20.23,0,0,1,413.5,519Q420.78,519,425.16,523.24Z"/><path class="cls-1" d="M479.52,519.43V552q0,20.31-20.73,20.31a38.28,38.28,0,0,1-10.51-1.41,22.24,22.24,0,0,1-8.21-4.06l4-6.77a19.27,19.27,0,0,0,6.37,3.35,25,25,0,0,0,7.81,1.26q6.35,0,9.29-2.88t2.95-8.79v-2a14.73,14.73,0,0,1-5.61,3.81,19.72,19.72,0,0,1-7.28,1.3,20.83,20.83,0,0,1-9.89-2.34,17.54,17.54,0,0,1-7-6.59,18.51,18.51,0,0,1-2.55-9.72,18.29,18.29,0,0,1,2.55-9.68,17.37,17.37,0,0,1,7-6.52,21,21,0,0,1,9.89-2.3,20.32,20.32,0,0,1,7.6,1.36,14.16,14.16,0,0,1,5.73,4.18v-5.11Zm-12.13,26a10.42,10.42,0,0,0,3.28-8,10.23,10.23,0,0,0-3.28-7.85,11.9,11.9,0,0,0-8.39-3,12,12,0,0,0-8.46,3,10.22,10.22,0,0,0-3.27,7.85,10.41,10.41,0,0,0,3.27,8,11.92,11.92,0,0,0,8.46,3.06A11.79,11.79,0,0,0,467.39,545.46Z"/></svg>