<svg xmlns="http://www.w3.org/2000/svg" viewBox="0 0 500 500"><defs><style>.cls-1{fill:#fcc056;}.cls-2{fill:#1372ff;}</style></defs><title>logo-svg</title><g id="logo-ver-3--color"><path class="cls-1" d="M337.68,202.28a124.73,124.73,0,0,0,16-65.54C351.52,70.3,297,16.69,230.54,15.6A125.23,125.23,0,0,0,103.7,128.73V451.65h41.81V234.83l0,0a125.12,125.12,0,0,0,37,22.65,104.55,104.55,0,0,1,116.08-12.77,125.54,125.54,0,0,0,31.17-30.13,145,145,0,0,0-39.47-18,83.23,83.23,0,0,1-144.77-48.31c-.22-2.43-.33-4.9-.33-7.39a83.25,83.25,0,1,1,154.4,43.22A160.32,160.32,0,0,1,337.68,202.28Z"/><path class="cls-2" d="M329.75,214.6a146.46,146.46,0,0,0-149.62-5.9,147.21,147.21,0,0,0-34.6,26.15l0,0A145.75,145.75,0,0,0,103.7,337.27v146.3H250a146.31,146.31,0,0,0,79.74-269ZM250,441.77H145.51V337.27A104.5,104.5,0,1,1,250,441.77Z"/></g></svg>