<svg xmlns="http://www.w3.org/2000/svg" viewBox="0 0 500 100"><defs><style>.cls-1{fill:#fff;}</style></defs><title>logo-svg</title><g id="logo-ver-3__header--white"><path class="cls-1" d="M332.7,44.34A17.56,17.56,0,0,0,328,42.2a17.46,17.46,0,0,0-13.11,1.44,17.39,17.39,0,0,0-4.11,3.11h0a17.38,17.38,0,0,0-5,12.19v17.4h17.41a17.41,17.41,0,0,0,9.49-32Zm-9.49,27H310.77V58.94a12.44,12.44,0,1,1,12.44,12.43Z"/><path class="cls-1" d="M90.15,38.7H75.4v-7h37.75v7H98.41V76.2H90.15Z"/><path class="cls-1" d="M148.17,45.63q3.87,3.75,3.88,11.12V76.2h-8V57.77c0-3-.7-5.2-2.1-6.71a7.75,7.75,0,0,0-6-2.25,9.22,9.22,0,0,0-6.93,2.63q-2.53,2.64-2.54,7.6V76.2h-7.94V29h7.94V46.2A12.83,12.83,0,0,1,131.42,43a17.89,17.89,0,0,1,6.45-1.11Q144.29,41.88,148.17,45.63Z"/><path class="cls-1" d="M194.24,61.77H167.61a9.24,9.24,0,0,0,3.66,5.94,12,12,0,0,0,7.34,2.2,12.34,12.34,0,0,0,9.21-3.69l4.26,4.89a14.2,14.2,0,0,1-5.78,4.13,22.92,22.92,0,0,1-17.73-.82,16,16,0,0,1-6.58-6.2,17.45,17.45,0,0,1-2.32-9,17.69,17.69,0,0,1,2.26-8.93,16,16,0,0,1,6.26-6.2,18.27,18.27,0,0,1,9-2.22,17.84,17.84,0,0,1,8.87,2.19,15.54,15.54,0,0,1,6.1,6.17,18.69,18.69,0,0,1,2.19,9.18C194.37,60,194.33,60.75,194.24,61.77ZM170.76,50.49a9.48,9.48,0,0,0-3.21,6h19.26a9.29,9.29,0,0,0-9.6-8.27A9.61,9.61,0,0,0,170.76,50.49Z"/><path class="cls-1" d="M257.67,57.1a11.23,11.23,0,0,1,2.16,7,10.3,10.3,0,0,1-4.45,8.93q-4.45,3.15-13,3.15H220.3V31.71h20.84q7.89,0,12.14,3.08a9.92,9.92,0,0,1,4.26,8.49A11.09,11.09,0,0,1,256,49.12a10.33,10.33,0,0,1-4.19,3.94A11.74,11.74,0,0,1,257.67,57.1ZM228.56,38.19V50.46h11.69a11.91,11.91,0,0,0,6.65-1.56,5.13,5.13,0,0,0,2.31-4.54,5.2,5.2,0,0,0-2.31-4.61,11.91,11.91,0,0,0-6.65-1.56ZM251.5,63.3q0-6.42-9.59-6.42H228.56V69.71h13.35Q251.5,69.71,251.5,63.3Z"/><path class="cls-1" d="M273.87,74.42a16.24,16.24,0,0,1-6.45-6.2,17.45,17.45,0,0,1-2.32-9,17.29,17.29,0,0,1,2.32-9,16.37,16.37,0,0,1,6.45-6.17,20.63,20.63,0,0,1,18.62,0,16.24,16.24,0,0,1,6.45,6.17,17.29,17.29,0,0,1,2.32,9,17.45,17.45,0,0,1-2.32,9,16.11,16.11,0,0,1-6.45,6.2,20.63,20.63,0,0,1-18.62,0Zm16.53-7.5a10.55,10.55,0,0,0,2.86-7.69,10.55,10.55,0,0,0-2.86-7.69,9.72,9.72,0,0,0-7.25-2.92,9.59,9.59,0,0,0-7.21,2.92,10.57,10.57,0,0,0-2.83,7.69,10.57,10.57,0,0,0,2.83,7.69,9.59,9.59,0,0,0,7.21,2.92A9.72,9.72,0,0,0,290.4,66.92Z"/><path class="cls-1" d="M314.86,74.42a16.24,16.24,0,0,1-6.45-6.2,18.52,18.52,0,0,1,0-17.95,16.37,16.37,0,0,1,6.45-6.17,20.63,20.63,0,0,1,18.62,0,16.24,16.24,0,0,1,6.45,6.17,17.29,17.29,0,0,1,2.32,9,17.45,17.45,0,0,1-2.32,9,16.11,16.11,0,0,1-6.45,6.2,20.63,20.63,0,0,1-18.62,0Zm16.53-7.5a10.55,10.55,0,0,0,2.86-7.69,10.55,10.55,0,0,0-2.86-7.69,9.72,9.72,0,0,0-7.25-2.92,9.59,9.59,0,0,0-7.21,2.92,10.57,10.57,0,0,0-2.83,7.69,10.57,10.57,0,0,0,2.83,7.69,9.59,9.59,0,0,0,7.21,2.92A9.72,9.72,0,0,0,331.39,66.92Z"/><path class="cls-1" d="M363.73,61.64l-5.91,5.6v9h-7.94V29h7.94V57.51l16.46-15.25h9.54L369.64,56.5l15.51,19.7h-9.66Z"/><path class="cls-1" d="M390.36,35.3a4.69,4.69,0,0,1,0-6.8A5.11,5.11,0,0,1,394,27.13a5.27,5.27,0,0,1,3.63,1.31,4.21,4.21,0,0,1,1.46,3.27,4.82,4.82,0,0,1-1.43,3.53A5,5,0,0,1,394,36.67,5.11,5.11,0,0,1,390.36,35.3Zm-.38,7h7.94V76.2H390Z"/><path class="cls-1" d="M437.9,45.63q3.87,3.75,3.87,11.12V76.2h-7.94V57.77c0-3-.7-5.2-2.1-6.71a7.75,7.75,0,0,0-6-2.25,9.22,9.22,0,0,0-6.93,2.63q-2.54,2.64-2.54,7.6V76.2h-7.94V42.26h7.56v4.38a12.35,12.35,0,0,1,5-3.55,17.7,17.7,0,0,1,6.73-1.21Q434,41.88,437.9,45.63Z"/><path class="cls-1" d="M485.88,42.26V71.05q0,17.92-18.3,17.92a33.77,33.77,0,0,1-9.28-1.24,19.55,19.55,0,0,1-7.25-3.59l3.56-6a16.92,16.92,0,0,0,5.63,3,22,22,0,0,0,6.89,1.11c3.73,0,6.46-.84,8.2-2.54s2.61-4.28,2.61-7.75V70.16a13.1,13.1,0,0,1-5,3.37,17.53,17.53,0,0,1-6.42,1.14,18.51,18.51,0,0,1-8.74-2.06,15.55,15.55,0,0,1-6.16-5.82,16.26,16.26,0,0,1-2.26-8.58,16.11,16.11,0,0,1,2.26-8.55,15.45,15.45,0,0,1,6.16-5.75,18.73,18.73,0,0,1,8.74-2,17.76,17.76,0,0,1,6.7,1.21,12.33,12.33,0,0,1,5.06,3.68V42.26Zm-10.71,23a9.16,9.16,0,0,0,2.89-7,9,9,0,0,0-2.89-6.93,11.72,11.72,0,0,0-14.87,0,9,9,0,0,0-2.89,6.93,9.16,9.16,0,0,0,2.89,7,11.59,11.59,0,0,0,14.87,0Z"/><path class="cls-1" d="M53.76,42.37A20.76,20.76,0,1,0,15,30.18v53.5h6.93V47.76h0a20.75,20.75,0,0,0,6.12,3.75A17.33,17.33,0,0,1,47.29,49.4a20.91,20.91,0,0,0,5.16-5,24,24,0,0,0-6.54-3,13.79,13.79,0,0,1-18.25,2,14.17,14.17,0,0,1-1.95-1.68,13.72,13.72,0,0,1-3.78-8.33c0-.4-.06-.81-.06-1.22a13.79,13.79,0,1,1,25.58,7.16A26.74,26.74,0,0,1,53.76,42.37Z"/><path class="cls-1" d="M52.45,44.41a24.31,24.31,0,0,0-24.79-1,24.32,24.32,0,0,0-5.73,4.34h0a24.13,24.13,0,0,0-6.93,17V89H39.24A24.24,24.24,0,0,0,52.45,44.41ZM39.24,82.05H21.93V64.73A17.31,17.31,0,1,1,39.24,82.05Z"/></g></svg>